<svg xmlns="http://www.w3.org/2000/svg" xmlns:xlink="http://www.w3.org/1999/xlink" width="500" zoomAndPan="magnify" viewBox="0 0 375 374.999991" height="500" preserveAspectRatio="xMidYMid meet" version="1.0"><path fill="#fefefe" d="M 297.222656 143.910156 C 293.328125 160.316406 279.253906 166.5625 277.753906 167.199219 C 282.648438 179.265625 287.636719 191.335938 292.53125 203.402344 L 268.269531 203.402344 L 255.492188 171.328125 L 219.851562 171.007812 L 227.640625 151.214844 L 264.378906 151.214844 C 271.164062 150.472656 276.457031 144.332031 276.558594 137.132812 C 276.65625 129.832031 271.464844 123.585938 264.578125 122.632812 C 216.660156 123.230469 168.632812 123.230469 120.753906 122.632812 C 113.867188 123.585938 108.675781 129.832031 108.773438 137.132812 C 108.875 144.332031 114.164062 150.472656 120.953125 151.214844 L 157.691406 151.214844 L 165.480469 171.007812 L 129.839844 171.328125 L 117.0625 203.402344 L 92.800781 203.402344 C 97.695312 191.335938 102.683594 179.265625 107.578125 167.199219 C 106.078125 166.5625 92.003906 160.316406 88.109375 143.910156 C 87.710938 142.109375 85.015625 129.617188 92.203125 117.867188 C 101.785156 102.199219 119.957031 102.519531 120.953125 102.519531 C 168.761719 102.519531 216.570312 102.519531 264.378906 102.519531 C 265.375 102.519531 283.546875 102.199219 293.128906 117.867188 C 300.417969 129.617188 297.621094 142.109375 297.222656 143.910156 Z M 297.222656 143.910156 " fill-opacity="1" fill-rule="nonzero"/><path fill="#fefefe" d="M 181.394531 201.707031 L 151.476562 126.328125 L 173.238281 126.328125 L 191.976562 174.183594 L 211.035156 126.328125 L 233.496094 126.328125 L 203.355469 201.707031 Z M 181.394531 201.707031 " fill-opacity="1" fill-rule="nonzero"/><path fill="#fefefe" d="M 71.566406 234.882812 L 79.871094 234.882812 L 79.871094 237.976562 L 71.566406 237.976562 Z M 89.007812 227.328125 L 89.007812 233.285156 L 93.363281 233.285156 C 94.796875 233.285156 95.855469 233.023438 96.527344 232.5 C 97.199219 231.976562 97.539062 231.164062 97.539062 230.066406 C 97.539062 229.097656 97.253906 228.398438 96.683594 227.960938 C 96.089844 227.539062 95.148438 227.328125 93.871094 227.328125 Z M 84.847656 223.90625 L 93.480469 223.90625 C 96.191406 223.90625 98.195312 224.386719 99.488281 225.355469 C 100.796875 226.320312 101.449219 227.832031 101.449219 229.886719 C 101.449219 231.433594 101.015625 232.695312 100.148438 233.675781 C 99.273438 234.652344 98.066406 235.238281 96.535156 235.445312 C 97.3125 235.671875 98.023438 236.066406 98.664062 236.632812 C 99.253906 237.144531 99.75 237.796875 100.148438 238.589844 L 100.558594 239.453125 C 101.152344 240.664062 101.652344 241.621094 102.058594 242.3125 C 102.449219 243.019531 102.753906 243.5 102.972656 243.757812 L 97.726562 243.757812 C 97.46875 243.132812 97.164062 242.441406 96.808594 241.683594 C 96.433594 240.941406 96.152344 240.367188 95.953125 239.964844 C 95.40625 238.949219 94.882812 238.136719 94.378906 237.53125 C 93.996094 237.082031 93.605469 236.765625 93.199219 236.574219 C 92.777344 236.410156 92.167969 236.328125 91.378906 236.328125 L 89.007812 236.328125 L 89.007812 243.757812 L 84.847656 243.757812 Z M 107.246094 223.90625 L 120.4375 223.90625 L 120.4375 227.175781 L 111.410156 227.175781 L 111.410156 231.691406 L 119.25 231.691406 L 119.25 234.960938 L 111.410156 234.960938 L 111.410156 240.4375 L 120.984375 240.4375 L 120.984375 243.757812 L 107.246094 243.757812 Z M 123.707031 223.90625 L 128.226562 223.90625 L 134.3125 239.289062 L 140.410156 223.90625 L 144.625 223.90625 L 135.964844 244.136719 L 132.46875 244.136719 Z M 148.03125 223.90625 L 161.222656 223.90625 L 161.222656 227.175781 L 152.195312 227.175781 L 152.195312 231.691406 L 160.035156 231.691406 L 160.035156 234.960938 L 152.195312 234.960938 L 152.195312 240.4375 L 161.769531 240.4375 L 161.769531 243.757812 L 148.03125 243.757812 Z M 171.472656 227.328125 L 171.472656 233.285156 L 175.824219 233.285156 C 177.261719 233.285156 178.316406 233.023438 178.992188 232.5 C 179.664062 231.976562 180 231.164062 180 230.066406 C 180 229.097656 179.71875 228.398438 179.148438 227.960938 C 178.550781 227.539062 177.609375 227.328125 176.332031 227.328125 Z M 167.308594 223.90625 L 175.945312 223.90625 C 178.652344 223.90625 180.65625 224.386719 181.953125 225.355469 C 183.257812 226.320312 183.910156 227.832031 183.910156 229.886719 C 183.910156 231.433594 183.480469 232.695312 182.613281 233.675781 C 181.738281 234.652344 180.53125 235.238281 179 235.445312 C 179.773438 235.671875 180.484375 236.066406 181.128906 236.632812 C 181.714844 237.144531 182.210938 237.796875 182.613281 238.589844 L 183.023438 239.453125 C 183.613281 240.664062 184.113281 241.621094 184.519531 242.3125 C 184.910156 243.019531 185.214844 243.5 185.433594 243.757812 L 180.1875 243.757812 C 179.929688 243.132812 179.625 242.441406 179.269531 241.683594 C 178.898438 240.941406 178.613281 240.367188 178.414062 239.964844 C 177.867188 238.949219 177.34375 238.136719 176.839844 237.53125 C 176.460938 237.082031 176.066406 236.765625 175.660156 236.574219 C 175.242188 236.410156 174.632812 236.328125 173.839844 236.328125 L 171.472656 236.328125 L 171.472656 243.757812 L 167.308594 243.757812 Z M 200.320312 223.90625 L 204.484375 223.90625 L 204.484375 231.917969 L 214.128906 231.917969 L 214.128906 223.90625 L 218.269531 223.90625 L 218.269531 243.757812 L 214.128906 243.757812 L 214.128906 235.085938 L 204.484375 235.085938 L 204.484375 243.757812 L 200.320312 243.757812 Z M 233.949219 227.023438 C 232.078125 227.023438 230.578125 227.640625 229.445312 228.871094 C 228.308594 230.117188 227.742188 231.773438 227.742188 233.835938 C 227.742188 235.902344 228.308594 237.550781 229.445312 238.78125 C 230.558594 240.019531 232.0625 240.640625 233.949219 240.640625 C 235.828125 240.640625 237.335938 240.011719 238.46875 238.753906 C 239.578125 237.523438 240.132812 235.886719 240.132812 233.835938 C 240.132812 231.773438 239.578125 230.117188 238.46875 228.871094 C 237.335938 227.640625 235.828125 227.023438 233.949219 227.023438 Z M 233.949219 223.324219 C 237.070312 223.324219 239.589844 224.289062 241.503906 226.226562 C 243.414062 228.15625 244.371094 230.695312 244.371094 233.835938 C 244.371094 236.980469 243.417969 239.515625 241.511719 241.445312 C 239.578125 243.378906 237.054688 244.339844 233.949219 244.339844 C 230.851562 244.339844 228.34375 243.371094 226.425781 241.421875 C 224.492188 239.488281 223.527344 236.964844 223.527344 233.835938 C 223.527344 230.714844 224.484375 228.183594 226.402344 226.242188 C 228.300781 224.292969 230.820312 223.324219 233.949219 223.324219 Z M 247.558594 223.90625 L 264.347656 223.90625 L 264.347656 227.40625 L 258.035156 227.417969 L 258.035156 243.757812 L 253.871094 243.757812 L 253.871094 227.40625 L 247.558594 227.40625 Z M 268.953125 223.90625 L 282.148438 223.90625 L 282.148438 227.175781 L 273.117188 227.175781 L 273.117188 231.691406 L 280.957031 231.691406 L 280.957031 234.960938 L 273.117188 234.960938 L 273.117188 240.4375 L 282.695312 240.4375 L 282.695312 243.757812 L 268.953125 243.757812 Z M 288.230469 223.90625 L 292.394531 223.90625 L 292.394531 240.054688 L 302.320312 240.054688 L 302.320312 243.757812 L 288.230469 243.757812 Z M 305.496094 234.882812 L 313.796875 234.882812 L 313.796875 237.976562 L 305.496094 237.976562 Z M 305.496094 234.882812 " fill-opacity="1" fill-rule="nonzero"/></svg>